<?xml version="1.0" standalone="no"?>
<!DOCTYPE svg PUBLIC "-//W3C//DTD SVG 20010904//EN"
 "http://www.w3.org/TR/2001/REC-SVG-20010904/DTD/svg10.dtd">
<svg version="1.0" xmlns="http://www.w3.org/2000/svg"
 width="720.000000pt" height="720.000000pt" viewBox="0 0 720.000000 720.000000"
 preserveAspectRatio="xMidYMid meet">
<metadata>
Created by potrace 1.11, written by Peter Selinger 2001-2013
</metadata>
<g transform="translate(0.000000,720.000000) scale(0.100000,-0.100000)"
fill="#000000" stroke="none">
<path d="M3368 7195 c-2 -1 -41 -6 -88 -9 -95 -7 -105 -9 -280 -37 -168 -28
-470 -102 -550 -136 -8 -3 -19 -7 -25 -8 -16 -4 -148 -54 -170 -65 -11 -5 -49
-21 -85 -35 -194 -79 -427 -213 -700 -402 -37 -26 -229 -181 -274 -222 -79
-73 -233 -228 -296 -301 -36 -41 -68 -77 -71 -80 -4 -3 -49 -62 -101 -131
-245 -327 -427 -673 -547 -1042 -38 -117 -77 -254 -87 -307 -3 -14 -11 -52
-19 -85 -7 -33 -16 -80 -20 -105 -4 -25 -8 -52 -10 -60 -2 -8 -6 -40 -10 -70
-4 -30 -9 -66 -11 -80 -19 -116 -26 -596 -11 -735 3 -33 9 -85 12 -115 3 -30
8 -66 11 -78 3 -13 7 -43 10 -65 40 -308 181 -737 353 -1077 46 -91 145 -256
221 -370 50 -75 202 -276 219 -290 3 -3 35 -39 71 -80 211 -245 533 -513 827
-690 184 -111 466 -247 613 -297 25 -8 52 -17 60 -20 18 -7 9 -4 149 -48 171
-53 433 -111 546 -120 17 -1 44 -5 60 -9 127 -27 690 -28 870 -1 160 24 267
42 330 57 281 64 573 164 790 271 50 24 92 44 95 45 24 2 432 257 438 273 2 5
8 9 13 9 5 0 17 6 26 14 10 8 56 44 101 80 322 250 630 598 848 956 57 93 194
356 227 435 62 151 81 200 118 313 66 204 124 455 144 622 3 30 8 62 10 70 11
42 19 230 19 435 0 282 -7 371 -50 615 -13 74 -28 155 -34 180 -6 25 -13 56
-16 70 -21 98 -95 327 -153 471 -363 904 -1091 1635 -1991 1996 -175 70 -387
138 -529 169 -191 41 -350 68 -491 81 -55 5 -557 13 -562 8z"/>
</g>
</svg>
